<!-- Generated by IcoMoon.io -->
<svg version="1.1" xmlns="http://www.w3.org/2000/svg" width="1024" height="1024" viewBox="0 0 1024 1024">
<title></title>
<g id="icomoon-ignore">
</g>
<path fill="#000" d="M777.387 497.493c2.527 0.181 5.474 0.284 8.446 0.284 60.671 0 111.295-43.014 123.041-100.21l0.139-0.811c-14.901-22.762-40.28-37.589-69.121-37.589-0.015 0-0.029 0-0.044 0h0.002c-0.564-0.014-1.229-0.022-1.896-0.022-45.526 0-82.432 36.906-82.432 82.432 0 21.606 8.312 41.27 21.913 55.969l-0.050-0.054zM483.584 150.272l171.563-99.285-54.613-30.805-236.501 136.96 18.816 10.581 35.84 20.053zM677.12 41.813c2.886 0.921 5.118 3.139 6.040 5.951l0.019 0.065 79.488 242.987c0.322 0.903 0.508 1.945 0.508 3.031 0 3.371-1.793 6.323-4.477 7.954l-0.041 0.023c-48.113 28.693-79.838 80.465-79.838 139.646 0 15.134 2.075 29.784 5.955 43.68l-0.272-1.14c19.435 69.328 82.068 119.319 156.378 119.319 5.784 0 11.497-0.303 17.124-0.894l-0.702 0.060c4.352-0.341 8.533 2.347 9.856 6.485l82.005 249.685c0.29 0.872 0.457 1.876 0.457 2.919 0 3.391-1.766 6.37-4.429 8.066l-0.039 0.023-251.477 152.661c-1.179 0.686-2.575 1.132-4.066 1.236l-0.030 0.002c-0.438 0.073-0.944 0.115-1.458 0.115-1.902 0-3.671-0.568-5.147-1.544l0.035 0.022-88.491-57.515c-1.535-1.013-2.736-2.42-3.475-4.078l-0.024-0.060-172.629-412.672-263.040 156.032c-0.49 0.331-1.052 0.631-1.644 0.873l-0.063 0.023c-1.065 0.485-2.31 0.768-3.621 0.768-1.758 0-3.397-0.509-4.778-1.387l0.036 0.022-59.477-34.987c-2.811-1.614-4.674-4.599-4.674-8.019 0-1.527 0.371-2.967 1.029-4.235l-0.024 0.051 254.507-503.979c0.949-1.863 2.455-3.328 4.296-4.2l0.056-0.024 254.635-147.456c1.375-0.841 3.039-1.339 4.82-1.339 1.66 0 3.22 0.433 4.571 1.193l-0.047-0.024zM410.88 205.013l-61.867-34.859-246.187 487.339 44.672 26.325 212.139-288.469c1.689-2.38 4.435-3.914 7.538-3.914 0.411 0 0.816 0.027 1.213 0.079l-0.047-0.005c3.371 0.341 6.229 2.56 7.509 5.675l231.296 553.429 61.867 40.064-247.595-753.92zM839.851 542.848c-0.012 0-0.026 0-0.040 0-55.918 0-101.248-45.33-101.248-101.248s45.33-101.248 101.248-101.248c27.937 0 53.231 11.315 71.55 29.612l-0.001-0.001c18.295 18.298 29.611 43.576 29.611 71.496 0 0.005 0 0.009 0 0.014v-0.001c0 0.076 0 0.166 0 0.256 0 55.847-45.273 101.12-101.12 101.12 0 0 0 0 0 0v0z"></path>
</svg>
